<?xml version="1.0" encoding="UTF-8"?>
<svg id="Layer_1" data-name="Layer 1" xmlns="http://www.w3.org/2000/svg" xmlns:xlink="http://www.w3.org/1999/xlink" viewBox="0 0 419 382.89">
  <defs>
    <style>
      .cls-1 {
        clip-path: url(#clippath);
      }

      .cls-2 {
        fill: none;
      }

      .cls-2, .cls-3 {
        stroke-width: 0px;
      }

      .cls-4 {
        clip-path: url(#clippath-1);
      }

      .cls-5 {
        clip-path: url(#clippath-3);
      }

      .cls-6 {
        clip-path: url(#clippath-2);
      }

      .cls-3 {
        fill: #fff;
      }
    </style>
    <clipPath id="clippath">
      <path class="cls-2" d="m-1465.95,97.92h238.94c39.85,0,70.41,8.22,91.77,24.65,21.29,16.43,31.95,36.73,31.95,61.01,0,20.37-7.6,37.79-22.78,52.35-10.15,9.68-25.02,17.39-44.54,22.98,29.7,5.97,51.54,16.16,65.52,30.63,13.99,14.53,20.95,32.69,20.95,54.63,0,17.79-4.96,33.84-14.9,48.07-9.98,14.26-23.6,25.56-40.84,33.81-10.73,5.19-26.89,8.93-48.48,11.27-28.72,3.13-47.83,4.68-57.21,4.68h-220.36V97.92Zm128.74,134.98h55.54c19.9,0,33.75-2.85,41.52-8.56,7.88-5.77,11.71-13.95,11.71-24.78,0-9.98-3.83-17.82-11.71-23.49-7.77-5.6-21.35-8.45-40.67-8.45h-56.35l-.03,65.29Zm0,135.22h65.11c22,0,37.48-3.23,46.47-9.78,8.96-6.48,13.52-15.17,13.52-26.14,0-10.15-4.45-18.33-13.38-24.51-8.93-6.18-24.58-9.27-46.92-9.27h-64.84l.04,69.7Z"/>
    </clipPath>
    <clipPath id="clippath-1">
      <polygon class="cls-2" points="-1138.98 97.92 -993.07 97.92 -906.36 206.18 -820.74 97.92 -674.28 97.92 -674.28 442.03 -778.85 442.03 -778.85 286.95 -907.38 442.03 -1034.45 286.95 -1034.45 442.03 -1138.98 442.03 -1138.98 97.92"/>
    </clipPath>
    <clipPath id="clippath-2">
      <path class="cls-2" d="m-731.49,328.17l121.47-6.35c2.65,16.43,8.05,28.96,16.09,37.58,13.1,13.95,31.91,20.88,56.35,20.88,18.23,0,32.29-3.53,42.06-10.66,9.91-7.09,14.8-15.41,14.8-24.78s-4.65-16.94-14.05-23.9c-9.41-7.13-31.17-13.75-65.39-19.99-56.02-10.49-95.91-24.41-119.77-41.79-24.07-17.35-36.06-39.52-36.06-66.41,0-17.69,6.15-34.43,18.44-50.11,12.32-15.76,30.76-28.08,55.57-37.11,24.65-8.96,58.49-13.44,101.54-13.44,52.79,0,93.03,8.15,120.76,24.51,27.74,16.36,44.17,42.41,49.43,78.05l-120.32,5.91c-3.19-15.52-9.95-26.79-20.17-33.81s-24.34-10.59-42.37-10.59c-14.87,0-26.01,2.61-33.51,7.88-7.54,5.27-11.3,11.61-11.3,19.15,0,5.46,3.09,10.42,9.3,14.77,6.01,4.55,20.3,8.79,42.84,12.67,55.85,10.01,95.77,20.2,119.91,30.42,24.14,10.22,41.69,22.95,52.69,38.16,11,15.21,16.5,32.15,16.5,50.96,0,22.03-7.33,42.36-22,61.01-14.63,18.64-35.14,32.73-61.38,42.37-26.31,9.61-59.48,14.46-99.44,14.46-70.31,0-118.96-11.27-145.98-33.82-27.02-22.54-42.4-51.19-45.97-85.96"/>
    </clipPath>
    <clipPath id="clippath-3">
      <path class="cls-2" d="m18.6,19.41h238.94c39.85,0,70.41,8.22,91.77,24.65,21.29,16.43,31.95,36.73,31.95,61.01,0,20.37-7.6,37.79-22.78,52.35-10.15,9.68-25.02,17.39-44.54,22.98,29.7,5.97,51.54,16.16,65.52,30.63,13.99,14.53,20.95,32.69,20.95,54.63,0,17.79-4.96,33.84-14.9,48.07-9.98,14.26-23.6,25.56-40.84,33.81-10.73,5.19-26.89,8.93-48.48,11.27-28.72,3.13-47.83,4.68-57.21,4.68H18.6V19.41Zm128.74,134.98h55.54c19.9,0,33.75-2.85,41.52-8.56,7.88-5.77,11.71-13.95,11.71-24.78,0-9.98-3.83-17.82-11.71-23.49-7.77-5.6-21.35-8.45-40.67-8.45h-56.35l-.03,65.29Zm0,135.22h65.11c22,0,37.48-3.23,46.47-9.78,8.96-6.48,13.52-15.17,13.52-26.14,0-10.15-4.45-18.33-13.38-24.51-8.93-6.18-24.58-9.27-46.92-9.27h-64.84l.04,69.7Z"/>
    </clipPath>
  </defs>
  <g class="cls-1">
    <rect class="cls-3" x="-1925" y="-54" width="2028" height="648"/>
  </g>
  <g class="cls-4">
    <rect class="cls-3" x="-1925" y="-54" width="2028" height="648"/>
  </g>
  <g class="cls-6">
    <rect class="cls-3" x="-1925" y="-54" width="2028" height="648"/>
  </g>
  <g class="cls-5">
    <rect class="cls-3" x="-440.45" y="-132.51" width="2028" height="648"/>
  </g>
</svg>