<?xml version="1.0" encoding="UTF-8"?>
<svg id="Layer_1" data-name="Layer 1" xmlns="http://www.w3.org/2000/svg" xmlns:xlink="http://www.w3.org/1999/xlink" viewBox="0 0 1690 540">
  <defs>
    <style>
      .cls-1 {
        clip-path: url(#clippath);
      }

      .cls-2 {
        fill: none;
      }

      .cls-2, .cls-3 {
        stroke-width: 0px;
      }

      .cls-4 {
        clip-path: url(#clippath-1);
      }

      .cls-5 {
        clip-path: url(#clippath-2);
      }

      .cls-3 {
        fill: #034ea2;
      }
    </style>
    <clipPath id="clippath">
      <path class="cls-2" d="m1094.54,350.54l168.21-8.79c3.67,22.75,11.09,40.1,22.29,52.04,18.15,19.32,44.19,28.91,78.04,28.91,25.24,0,44.71-4.89,58.25-14.76,13.73-9.83,20.49-21.34,20.49-34.32,0-12.31-6.44-23.46-19.46-33.09-13.03-9.88-43.16-19.04-90.55-27.69-77.57-14.53-132.81-33.8-165.86-57.87-33.33-24.02-49.93-54.72-49.93-91.95,0-24.49,8.51-47.67,25.53-69.39,17.07-21.81,42.59-38.88,76.96-51.39,34.14-12.41,81.01-18.61,140.57-18.61,73.1,0,128.81,11.28,167.22,33.94,38.41,22.66,61.16,58.71,68.45,108.08l-166.61,8.14c-4.42-21.48-13.78-37.09-27.93-46.83-14.15-9.73-33.71-14.67-58.67-14.67-20.59,0-36.01,3.62-46.4,10.91-10.43,7.29-15.7,16.08-15.7,26.52,0,7.57,4.28,14.43,12.88,20.45,8.32,6.3,28.11,12.17,59.33,17.53,77.33,13.87,132.62,27.97,166.05,42.13s57.73,31.78,72.96,52.84c15.23,21.06,22.84,44.52,22.84,70.56,0,30.51-10.15,58.67-30.46,84.48-20.26,25.81-48.7,45.32-84.99,58.67-36.44,13.31-82.36,20.03-137.7,20.03-97.36,0-164.73-15.6-202.15-46.82-37.42-31.21-58.72-70.9-63.66-119.03"/>
    </clipPath>
    <clipPath id="clippath-1">
      <polygon class="cls-2" points="530.26 31.7 732.31 31.7 852.39 181.62 970.95 31.7 1173.76 31.7 1173.76 508.21 1028.96 508.21 1028.96 293.46 850.97 508.21 675.01 293.46 675.01 508.21 530.26 508.21 530.26 31.7"/>
    </clipPath>
    <clipPath id="clippath-2">
      <path class="cls-2" d="m77.48,31.7h330.87c55.19,0,97.51,11.38,127.07,34.13,29.48,22.76,44.24,50.87,44.24,84.48,0,28.21-10.53,52.33-31.55,72.49-14.05,13.4-34.65,24.07-61.68,31.83,41.14,8.27,71.36,22.38,90.73,42.41,19.36,20.12,29.01,45.27,29.01,75.64,0,24.64-6.86,46.87-20.64,66.57-13.77,19.7-32.67,35.4-56.55,46.82-14.86,7.19-37.23,12.36-67.14,15.61-39.77,4.32-66.24,6.49-79.21,6.49H77.48V31.7Zm178.27,186.92h76.91c27.55,0,46.73-3.95,57.49-11.85,10.91-7.99,16.27-19.32,16.27-34.32,0-13.82-5.31-24.68-16.27-32.53-10.77-7.76-29.53-11.71-56.32-11.71h-78.08v90.41Zm0,187.24h90.21c30.46,0,51.9-4.46,64.36-13.54,12.41-8.98,18.71-21.02,18.71-36.2,0-14.06-6.16-25.39-18.53-33.94-12.36-8.56-34.08-12.84-64.97-12.84h-89.79v96.52Z"/>
    </clipPath>
  </defs>
  <g class="cls-1">
    <path class="cls-3" d="m53.98.1h1583.52v539.79H53.98V.1Z"/>
  </g>
  <g class="cls-4">
    <path class="cls-3" d="m53.98.1h1583.52v539.79H53.98V.1Z"/>
  </g>
  <g class="cls-5">
    <path class="cls-3" d="m53.98.1h1583.52v539.79H53.98V.1Z"/>
  </g>
</svg>